<svg width="64" height="45" viewBox="0 0 64 45" fill="none" xmlns="http://www.w3.org/2000/svg">
<ellipse cx="32" cy="35.5" rx="32" ry="9.5" fill="url(#paint0_radial)"/>
<path d="M21.2373 0.5H44.7422C45.2025 0.5 45.6373 0.711332 45.9217 1.07327L56.3889 14.3952V31.5H8.62695V14.4072L20.0984 1.02381C20.3834 0.691345 20.7994 0.5 21.2373 0.5Z" fill="#F5F5F5" stroke="#C0C0C0"/>
<path d="M8.62695 14.7222H21.365C22.1935 14.7222 22.865 15.3938 22.865 16.2222V20.3175C22.865 21.7157 23.9985 22.8492 25.3968 22.8492H40.6349C42.0331 22.8492 43.1666 21.7157 43.1666 20.3175V16.2222C43.1666 15.3938 43.8382 14.7222 44.6666 14.7222H56.3889V33.5238C56.3889 34.9308 55.2483 36.0714 53.8412 36.0714H11.1746C9.76756 36.0714 8.62695 34.9308 8.62695 33.5238V14.7222Z" fill="#EDEDED" stroke="#C0C0C0"/>
<defs>
<radialGradient id="paint0_radial" cx="0" cy="0" r="1" gradientUnits="userSpaceOnUse" gradientTransform="translate(32 35.5) rotate(88.1407) scale(15.6553 52.7453)">
<stop stop-color="#E7E7E7"/>
<stop offset="1" stop-color="#E7E7E7" stop-opacity="0"/>
</radialGradient>
</defs>
</svg>
